<svg xmlns="http://www.w3.org/2000/svg" xmlns:xlink="http://www.w3.org/1999/xlink" id="body_1" preserveAspectRatio="xMinYMin meet" viewBox="0 0 816 1056"><defs><clipPath id="1"><path id="" clip-rule="evenodd" transform="matrix(1 0 0 1 0 0)" d="M0 792L0 0L0 0L612 0L612 0L612 792L612 792L0 792z" /></clipPath><clipPath id="2"><path id="" clip-rule="evenodd" transform="matrix(1 0 0 1 0 0)" d="M11.2 632.9L578.8 632.9L578.8 632.9L578.8 229.5L578.8 229.5L11.2 229.5z" /></clipPath><clipPath id="3"><path id="" clip-rule="evenodd" transform="matrix(1 0 0 1 0 0)" d="M0 792L612 792L612 792L612 0L612 0L0 0z" /></clipPath><clipPath id="4"><path id="" clip-rule="evenodd" transform="matrix(1 0 0 1 0 0)" d="M0 792L612 792L612 792L612 0L612 0L0 0z" /></clipPath><clipPath id="5"><path id="" clip-rule="evenodd" transform="matrix(1 0 0 1 0 0)" d="M0 792L612 792L612 792L612 0L612 0L0 0z" /></clipPath><clipPath id="6"><path id="" clip-rule="evenodd" transform="matrix(1 0 0 1 0 0)" d="M0 792L612 792L612 792L612 0L612 0L0 0z" /></clipPath><clipPath id="7"><path id="" clip-rule="evenodd" transform="matrix(1 0 0 1 0 0)" d="M86.914 134L525.086 134L525.086 134L525.086 48.14301L525.086 48.14301L86.914 48.14301z" /></clipPath><clipPath id="8"><path id="" clip-rule="evenodd" transform="matrix(1 0 0 1 0 0)" d="M0 158.297L612 158.297L612 158.297L612 0L612 0L0 0z" /></clipPath></defs><g transform="matrix(1.333333 0 0 1.333333 0 0)"><g clip-path="url(#1)"><g clip-path="url(#2)"><g transform="matrix(0.480203 0 0 0.4798002 11.2 229.4081)"><g transform="matrix(1 0 0 1 0 0)"><image x="0" y="0" xlink:href="img_01.png" width="1182" height="841" /></g></g></g><path id="2" transform="matrix(1 0 0 -1 0 792)" d="M0 609.486L612 609.486L612 792L0 792z" stroke="none" fill="#0077C0" fill-rule="nonzero" /><path id="3" transform="matrix(1 0 0 -1 0 792)" d="M0 0L612 0L612 166.941L0 166.941z" stroke="none" fill="#0077C0" fill-rule="nonzero" /><g clip-path="url(#3)"><path id="4" transform="matrix(1 0 0 -1 0 792)" d="M-9 164.131L621 164.131" stroke="#FFFFFF" stroke-width="0.288" fill="none" /></g><path id="5" transform="matrix(1 0 0 -1 0 792)" d="M0 543.866L612 543.866L612 607.032L0 607.032z" stroke="none" fill="#C7D8EF" fill-rule="nonzero" /><path id="6" transform="matrix(1 0 0 -1 0 792)" d="M129.906 579.868L129.906 607.107" stroke="#0076BF" stroke-width="0.173" fill="none" /><g clip-path="url(#4)"></g><path id="18" transform="matrix(1 0 0 -1 0 792)" d="M597.665 592.65L612 592.65L612 607.106L597.665 607.106z" stroke="none" fill="#0076BF" fill-rule="nonzero" /><path id="19" transform="matrix(1 0 0 -1 0 792)" d="M597.665 578.705L612 578.705L612 592.522L597.665 592.522z" stroke="none" fill="#1F88C9" fill-rule="nonzero" /><path id="20" transform="matrix(1 0 0 -1 0 792)" d="M597.665 564.078L612 564.078L612 578.898L597.665 578.898z" stroke="none" fill="#5F9DD4" fill-rule="nonzero" /><path id="21" transform="matrix(1 0 0 -1 0 792)" d="M597.665 551.158L612 551.158L612 564.953L597.665 564.953z" stroke="none" fill="#95B8E1" fill-rule="nonzero" /><path id="22" transform="matrix(1 0 0 -1 0 792)" d="M597.665 543.857L612 543.857L612 551.404L597.665 551.404z" stroke="none" fill="#C6D8EE" fill-rule="nonzero" /><g clip-path="url(#5)"><path id="23" transform="matrix(1 0 0 -1 0 792)" d="M-9 543.847L621 543.847" stroke="#0076BF" stroke-width="0.173" fill="none" /><path id="24" transform="matrix(1 0 0 -1 0 792)" d="M-9 607.126L621 607.126" stroke="#0076BF" stroke-width="0.173" fill="none" /></g><path id="25" transform="matrix(1 0 0 -1 0 792)" d="M597.712 607.025L597.712 543.847" stroke="#0076BF" stroke-width="0.173" fill="none" /><g clip-path="url(#6)"><path id="26" transform="matrix(1 0 0 -1 0 792)" d="M-9 551.419L621 551.419" stroke="#0076BF" stroke-width="0.173" fill="none" /><path id="27" transform="matrix(1 0 0 -1 0 792)" d="M597.712 564.906L620.999 564.906" stroke="#0076BF" stroke-width="0.173" fill="none" /><path id="28" transform="matrix(1 0 0 -1 0 792)" d="M597.684 578.922L621 578.922" stroke="#0076BF" stroke-width="0.173" fill="none" /><path id="29" transform="matrix(1 0 0 -1 0 792)" d="M597.82 592.564L621 592.564" stroke="#0076BF" stroke-width="0.173" fill="none" /></g><g clip-path="url(#7)"><path id="30" transform="matrix(1 0 0 -1 0 792)" d="M156.636 732.283C 157.199 735.38 152.533 737.818 148.338 738.245C 144.938 738.588 138.347 738.015 132.331 735.421C 125.683 743.236 132.687 742.65 135.847 741.417C 138.211 740.493 139.853 739.096 139.853 739.096C 139.853 739.096 139.15 741.301 135.372 742.809C 127.597 745.92 120.174 741.572 119.615 736.774C 119.431 735.19 119.435 733.864 119.595 732.709C 117.97 732.818 116.292 732.909 114.252 732.942C 107.537 733.06 106.699 736.63 110.756 737.791C 113.839 738.673 117.193 738.052 117.193 738.052C 117.193 738.052 114.953 739.531 110.756 738.836C 106.557 738.141 104.6 736.311 104.878 733.29C 105.163 730.275 107.679 728.417 113.695 726.098C 115.312 725.472 116.72 725.071 118.235 724.749C 116.225 723.136 114.478 721.989 112.341 720.988C 108.05 718.976 105.58 721.336 106.455 723.716C 107.292 725.998 108.05 726.25 108.05 726.25C 108.05 726.25 106.094 725.577 105.055 723.601C 103.796 721.202 106.279 717.236 111.596 716.888C 114.348 716.704 116.632 716.577 118.66 717.049C 119.275 716.151 120.551 714.475 122.039 713.598C 129.558 709.161 138.084 711.734 141.09 716.503C 142.616 716.32 147.106 715.926 151.04 717.157C 154.192 718.141 156.219 720.175 156.219 722.496C 156.219 723.998 155.015 725.948 152.719 727.489C 152.765 727.508 156.083 729.209 156.636 732.283M130.806 713.134C 128.939 712.21 125.804 712.767 123.225 714.257C 121.871 715.038 121.05 716.109 120.174 717.196C 123.504 717.599 126.014 718.507 128.538 719.881C 131.325 716.67 132.956 714.197 130.806 713.134M150.624 718.433C 147.37 716.972 143.155 717.255 141.59 717.424C 142.306 718.994 142.444 720.743 141.809 722.536C 141.809 722.536 141.793 722.598 141.745 722.727C 142.965 722.634 144.195 722.554 145.449 722.496C 150.483 722.266 155.662 720.699 150.624 718.433M147.967 729.578C 146.551 730.107 145.271 730.523 144.018 730.854C 145.821 732.221 147.392 733.315 148.873 733.987C 152.605 735.689 154.494 733.976 154.494 731.822C 154.494 730.041 152.781 728.614 151.679 727.881C 150.632 728.471 149.394 729.046 147.967 729.578" stroke="none" fill="#E51736" fill-rule="nonzero" /></g><g clip-path="url(#8)"><path id="31" transform="matrix(1 0 0 -1 0 792)" d="M105.299 705.346C 105.299 704.533 105.009 704.186 104.369 704.186C 103.27 704.186 103.384 705.692 101.761 709.694C 100.717 712.245 99.611 713.463 96.94701 713.463C 93.93 713.463 91.902 711.087 91.902 707.492C 91.902 704.069 93.177 703.315 98.978 699.081C 103.44 695.836 107.212 692.935 107.212 687.602C 107.212 682.033 103.035 676.467 94.801 676.467C 91.902 676.467 86.914 677.625 86.914 679.773C 86.914 688.47 87.263 688.878 88.25 688.878C 89.52 688.878 88.885 687.602 90.51 683.427C 91.902 679.887 93.87601 678.09 96.88901 678.09C 100.369 678.09 102.921 680.698 102.921 684.527C 102.921 694.792 87.377 693.516 87.377 705.346C 87.377 709.925 91.263 714.623 97.47 714.623C 101.643 714.623 104.604 713.812 105.009 713.233C 105.299 712.825 105.299 712.304 105.299 711.551z" stroke="none" fill="#FFFFFF" fill-rule="nonzero" /><path id="32" transform="matrix(1 0 0 -1 0 792)" d="M129.999 681.572C 129.999 680.354 130.694 680.121 131.682 679.887C 132.435 679.773 133.13 679.659 133.13 679.308C 133.13 678.731 132.667 678.843 131.329 678.439C 130.231 678.09 128.32 677.509 127.214 676.758C 126.924 676.583 126.637 676.467 126.347 676.467C 125.888 676.467 125.888 677.048 125.888 677.625L125.888 677.625L125.888 679.945C 125.888 680.47 125.65 680.642 125.417 680.642C 124.84 680.642 122.056 676.698 118.231 676.698C 114.344 676.698 111.908 678.959 111.908 684.18L111.908 684.18L111.908 700.474C 111.908 702.2141 110.688 702.33 109.705 702.39C 109.068 702.446 108.428 702.559 108.428 703.141C 108.428 703.604 108.719 703.895 109.3 703.895L109.3 703.895L115.737 703.895C 116.49 703.895 116.662 703.604 116.662 702.851L116.662 702.851L116.662 684.471C 116.662 681.107 118.055 679.597 120.663 679.597C 123.272 679.597 125.245 681.688 125.245 684.353L125.245 684.353L125.245 700.417C 125.245 702.156 124.029 702.272 123.041 702.33C 122.402 702.39 121.765 702.504 121.765 703.084C 121.765 703.548 122.056 703.8391 122.637 703.8391L122.637 703.8391L129.073 703.8391C 129.827 703.8391 129.999 703.548 129.999 702.793z" stroke="none" fill="#FFFFFF" fill-rule="nonzero" /><path id="33" transform="matrix(1 0 0 -1 0 792)" d="M150.992 696.938C 150.992 700.301 149.481 701.632 147.396 701.632C 145.192 701.632 143.395 700.126 142.41 697.287L142.41 697.287L142.41 681.163C 142.41 679.368 143.104 678.904 144.321 678.557C 145.481 678.206 145.655 678.034 145.655 677.742C 145.655 677.397 145.481 677.161 144.96 677.161C 143.858 677.161 142.291 677.397 139.915 677.397C 138.06 677.397 136.263 677.161 135.337 677.161C 134.698 677.161 134.404 677.281 134.404 677.802C 134.404 678.262 134.871 678.499 135.624 678.671C 137.193 679.02 137.655 679.424 137.655 681.396L137.655 681.396L137.655 697.635C 137.655 699.37 137.361 699.546 136.435 699.836C 135.624 700.068 134.698 699.836 134.698 700.474C 134.698 701.284 135.854 701.168 138.236 702.446C 141.536 704.242 141.189 704.882 141.943 704.882C 142.291 704.882 142.41 704.648 142.41 703.952L142.41 703.952L142.41 699.954L142.41 699.954L142.528 699.954C 144.439 702.272 146.003 704.533 149.365 704.533C 152.965 704.533 155.746 702.559 155.746 697.226L155.746 697.226L155.746 680.642C 155.746 679.485 156.269 678.787 157.661 678.557C 158.819 678.323 158.992 678.09 158.992 677.625C 158.992 677.397 158.701 677.161 158.238 677.161C 157.543 677.161 156.209 677.397 153.252 677.397C 151.859 677.397 150.409 677.161 149.018 677.161C 148.325 677.161 147.977 677.339 147.977 677.742C 147.977 678.206 148.149 678.323 148.965 678.557C 150.702 679.076 150.992 679.368 150.992 680.642z" stroke="none" fill="#FFFFFF" fill-rule="nonzero" /><path id="34" transform="matrix(1 0 0 -1 0 792)" d="M180.39 713.696C 183.061 713.696 182.48 716.015 183.756 716.015C 184.158 716.015 184.507 715.667 184.507 715.086C 184.507 714.161 184.335 713.116 183.696 704.764C 183.642 704.186 183.523 703.838 183.115 703.838C 182.303 703.838 182.594 704.301 181.26 708.36C 180.216 711.55 178.937 712.073 176.738 712.073C 175.522 712.073 175.289 711.783 175.289 711.087L175.289 711.087L175.289 681.688C 175.289 679.945 175.636 678.903 177.611 678.787C 179.809 678.671 179.981 678.557 179.981 677.917C 179.981 677.397 179.695 677.16 179 677.16C 178.012 677.16 176.854 677.397 173.14 677.397C 168.444 677.397 166.531 677.16 165.719 677.16C 165.2 677.16 164.852 677.397 164.852 677.917C 164.852 678.498 165.2 678.611 166.649 678.787C 169.315 679.076 169.606 679.484 169.606 682.153L169.606 682.153L169.606 710.797C 169.606 711.836 169.201 712.073 168.037 712.073C 165.84 712.073 164.561 711.029 162.644 707.663C 160.965 704.533 160.965 703.894 160.442 703.894C 160.094 703.894 159.921 704.128 159.921 704.475C 159.921 705.056 160.156 706.273 161.314 713.463C 161.662 715.607 161.662 716.015 162.416 716.015C 163.518 716.015 162.644 713.696 164.91 713.696z" stroke="none" fill="#FFFFFF" fill-rule="nonzero" /><path id="35" transform="matrix(1 0 0 -1 0 792)" d="M198.887 697.398C 198.887 694.039 197.322 693.284 191.871 693.284C 189.96 693.284 189.435 693.574 189.435 694.501C 189.435 695.659 190.25 703.141 195.061 703.141C 197.903 703.141 198.887 699.835 198.887 697.398M201.904 691.891C 203.178 691.891 203.639 692.298 203.639 694.269C 203.639 699.313 200.916 704.533 194.886 704.533C 188.043 704.533 183.868 697.691 183.868 690.21C 183.868 681.279 188.568 676.467 194.424 676.467C 200.916 676.467 203.639 681.86 203.639 683.313C 203.639 683.771 203.469 684.006 203.006 684.006C 201.786 684.006 202.136 679.368 196.044 679.368C 191.639 679.368 189.207 684.296 189.207 689.862C 189.207 691.717 189.435 691.891 190.423 691.891z" stroke="none" fill="#FFFFFF" fill-rule="nonzero" /><path id="36" transform="matrix(1 0 0 -1 0 792)" d="M219.301 679.368C 224.287 679.368 224.636 684.122 225.796 684.122C 226.143 684.122 226.429 683.888 226.429 683.074C 226.429 681.335 223.592 676.467 217.328 676.467C 210.833 676.467 206.423 682.267 206.423 690.963C 206.423 698.62 211.296 704.533 218.49 704.533C 220.517 704.533 223.356 704.069 224.4 703.431C 225.217 702.967 225.329 702.792 225.329 700.3C 225.329 696.301 225.217 696.066 224.055 696.066C 223.015 696.066 222.663 696.473 221.795 698.096C 219.706 701.922 219.415 703.141 217.851 703.141C 215.124 703.141 211.758 699.198 211.758 692.354C 211.758 685.05 215.006 679.368 219.301 679.368" stroke="none" fill="#FFFFFF" fill-rule="nonzero" /><path id="37" transform="matrix(1 0 0 -1 0 792)" d="M244.41 696.938C 244.41 700.183 242.903 701.632 240.81 701.632C 238.554 701.632 236.815 700.183 235.823 697.287L235.823 697.287L235.823 681.163C 235.823 679.597 236.058 679.308 238.264 678.557C 238.784 678.381 239.075 678.206 239.075 677.858C 239.075 677.509 238.899 677.161 238.378 677.161C 237.278 677.161 235.709 677.397 233.329 677.397C 231.474 677.397 229.681 677.161 228.751 677.161C 228.116 677.161 227.822 677.281 227.822 677.802C 227.822 678.262 228.289 678.499 229.042 678.671C 230.607 679.02 231.073 679.424 231.073 681.396L231.073 681.396L231.073 711.551C 231.073 714.272 230.03 714.1 229.042 714.272C 228.405 714.332 227.998 714.392 227.998 714.913C 227.998 715.435 228.405 715.608 229.158 715.781C 233.101 716.593 234.03 718.45 235.365 718.45C 235.709 718.45 235.823 718.277 235.823 717.637L235.823 717.637L235.823 699.954L235.823 699.954L235.942 699.954C 238.204 702.851 240.349 704.533 242.785 704.533C 246.379 704.533 249.16 702.677 249.16 697.226L249.16 697.226L249.16 680.642C 249.16 679.717 249.741 679.136 251.714 678.557C 252.121 678.439 252.412 678.206 252.412 677.802C 252.412 677.397 252.121 677.161 251.658 677.161C 250.961 677.161 249.627 677.397 246.67 677.397C 245.277 677.397 243.829 677.161 242.437 677.161C 241.739 677.161 241.393 677.339 241.393 677.742C 241.393 678.206 241.567 678.323 242.378 678.557C 244.12 679.076 244.41 679.368 244.41 680.642z" stroke="none" fill="#FFFFFF" fill-rule="nonzero" /><path id="38" transform="matrix(1 0 0 -1 0 792)" d="M252.59 719.56C 253.321 719.56 254.032 719.373 254.729 718.9969C 255.425 718.6219 255.972 718.087 256.358 717.389C 256.747 716.69 256.939 715.964 256.939 715.206C 256.939 714.455 256.747 713.735 256.366 713.041C 255.984 712.351 255.443 711.812 254.755 711.429C 254.066 711.049 253.343 710.857 252.59 710.857C 251.837 710.857 251.113 711.049 250.426 711.429C 249.733 711.812 249.198 712.351 248.812 713.041C 248.429 713.735 248.235 714.455 248.235 715.206C 248.235 715.964 248.429 716.69 248.823 717.389C 249.214 718.087 249.757 718.6219 250.448 718.9969C 251.149 719.373 251.861 719.56 252.59 719.56M252.59 718.839C 251.979 718.839 251.382 718.681 250.805 718.368C 250.228 718.053 249.775 717.608 249.447 717.025C 249.122 716.443 248.958 715.837 248.958 715.206C 248.958 714.579 249.118 713.978 249.438 713.405C 249.761 712.829 250.208 712.3799 250.785 712.058C 251.364 711.738 251.963 711.576 252.59 711.576C 253.217 711.576 253.818 711.738 254.395 712.058C 254.97 712.3799 255.421 712.829 255.739 713.405C 256.06 713.978 256.22 714.579 256.22 715.206C 256.22 715.837 256.056 716.443 255.731 717.025C 255.405 717.608 254.954 718.053 254.373 718.368C 253.792 718.681 253.195 718.839 252.59 718.839M250.683 712.8L250.683 717.483L250.683 717.483L252.291 717.483C 252.838 717.483 253.241 717.44 253.485 717.354C 253.73 717.267 253.926 717.116 254.07 716.901C 254.221 716.686 254.293 716.456 254.293 716.215C 254.293 715.8719 254.171 715.575 253.926 715.321C 253.68 715.066 253.355 714.924 252.954 714.894C 253.119 714.824 253.253 714.741 253.351 714.646C 253.543 714.461 253.772 714.151 254.044 713.717L254.044 713.717L254.613 712.8L254.613 712.8L253.692 712.8L253.692 712.8L253.275 713.538C 252.95 714.119 252.686 714.483 252.488 714.629C 252.345 714.736 252.147 714.791 251.883 714.791L251.883 714.791L251.436 714.791L251.436 714.791L251.436 712.8zM251.436 715.436L252.353 715.436C 252.794 715.436 253.091 715.502 253.249 715.631C 253.409 715.763 253.489 715.935 253.489 716.151C 253.489 716.289 253.455 716.413 253.375 716.524C 253.299 716.633 253.191 716.714 253.053 716.7679C 252.92 716.821 252.668 716.85 252.295 716.85L252.295 716.85L251.436 716.85z" stroke="none" fill="#FFFFFF" fill-rule="nonzero" /><path id="39" transform="matrix(1 0 0 -1 0 792)" d="M263.588 673.731L523.043 673.731L523.043 671.68L263.588 671.68z" stroke="none" fill="#FFFFFF" fill-rule="nonzero" /><path id="40" transform="matrix(1 0 0 -1 0 792)" d="M427.861 697.07L427.861 700.889L426.431 700.889L426.431 701.404L429.869 701.404L429.869 700.889L428.435 700.889L428.435 697.07z" stroke="none" fill="#FFFFFF" fill-rule="nonzero" /><path id="41" transform="matrix(1 0 0 -1 0 792)" d="M430.444 697.07L430.444 701.404L430.444 701.404L431.3 701.404L431.3 701.404L432.333 698.336C 432.428 698.052 432.498 697.835 432.541 697.695C 432.594 697.851 432.67 698.084 432.772 698.388L432.772 698.388L433.827 701.404L433.827 701.404L434.594 701.404L434.594 701.404L434.594 697.07L434.594 697.07L434.034 697.07L434.034 697.07L434.034 700.692L434.034 700.692L432.758 697.07L432.758 697.07L432.253 697.07L432.253 697.07L430.996 700.762L430.996 700.762L430.996 697.07z" stroke="none" fill="#FFFFFF" fill-rule="nonzero" /><path id="42" transform="matrix(1 0 0 -1 0 792)" d="M282.911 702.527C 283.222 702.527 283.44 702.466 283.566 702.345C 283.696 702.223 283.776 702.016 283.819 701.721L283.819 701.721L286.044 680.859C 286.124 680.218 286.231 679.773 286.381 679.515C 286.525 679.26 286.756 679.072 287.062 678.96C 287.218 678.884 287.401 678.799 287.619 678.707C 288.144 678.491 288.408 678.247 288.408 677.978C 288.408 677.748 288.35 677.585 288.236 677.489C 288.12 677.393 287.926 677.345 287.657 677.345C 287.517 677.345 286.866 677.365 285.7 677.401C 284.534 677.441 283.446 677.461 282.434 677.461C 281.485 677.461 280.461 677.429 279.359 677.365C 279.053 677.349 278.854 677.345 278.766 677.345C 278.56 677.345 278.395 677.397 278.265 677.497C 278.139 677.601 278.073 677.734 278.073 677.902C 278.073 678.274 278.425 678.561 279.129 678.765C 279.385 678.844 279.583 678.906 279.726 678.96C 280.058 679.176 280.293 679.401 280.425 679.629C 280.559 679.861 280.629 680.162 280.629 680.534C 280.629 680.675 280.625 680.783 280.617 680.859C 280.609 680.937 280.601 681.007 280.589 681.071L280.589 681.071L280.226 685.202C 280.201 685.469 280.138 685.635 280.042 685.699C 279.948 685.765 279.784 685.797 279.553 685.797L279.553 685.797L274.479 685.797C 274.058 685.797 273.772 685.623 273.617 685.278C 273.603 685.252 273.591 685.226 273.575 685.202L273.575 685.202L272.157 682.454C 272.005 682.133 271.882 681.801 271.794 681.456C 271.702 681.109 271.66 680.791 271.66 680.494C 271.66 680.072 271.756 679.749 271.954 679.525C 272.153 679.3 272.524 679.112 273.06 678.96C 273.124 678.932 273.201 678.9 273.293 678.862C 273.904 678.595 274.21 678.299 274.21 677.978C 274.21 677.762 274.156 677.601 274.038 677.497C 273.924 677.397 273.733 677.345 273.461 677.345C 273.09 677.345 272.524 677.365 271.756 677.401C 270.987 677.441 270.402 677.461 270.007 677.461C 269.468 677.461 268.821 677.441 268.064 677.401C 267.311 677.365 266.83 677.345 266.627 677.345C 266.333 677.345 266.125 677.387 266.011 677.469C 265.892 677.553 265.838 677.698 265.838 677.902C 265.838 678.056 266.287 678.419 267.18 678.996C 268.08 679.573 268.833 680.412 269.448 681.512L269.448 681.512L280.705 701.663C 280.896 702.034 281.076 702.271 281.244 702.372C 281.408 702.475 281.635 702.527 281.913 702.527zM279.916 688.045L279.167 695.862L279.167 695.862L275.156 688.121C 275.128 688.083 275.094 688.025 275.06 687.947C 274.996 687.807 274.96 687.719 274.96 687.678C 274.96 687.59 275.01 687.522 275.106 687.478C 275.202 687.434 275.354 687.41 275.557 687.41L275.557 687.41L279.09 687.41C 279.423 687.41 279.645 687.446 279.752 687.516C 279.864 687.586 279.916 687.722 279.916 687.927z" stroke="none" fill="#FFFFFF" fill-rule="nonzero" /><path id="43" transform="matrix(1 0 0 -1 0 792)" d="M298.774 684.182C 297.379 681.838 296.036 680.073 294.754 678.891C 293.463 677.705 292.236 677.112 291.072 677.112C 290.163 677.112 289.462 677.477 288.969 678.198C 288.476 678.923 288.232 679.963 288.232 681.319C 288.232 683.421 288.674 685.4839 289.566 687.516C 290.453 689.545 291.731 691.412 293.398 693.115C 294.434 694.177 295.521 694.994 296.664 695.563C 297.8 696.132 298.902 696.417 299.966 696.417C 300.211 696.417 300.516 696.387 300.887 696.32C 301.257 696.256 301.503 696.226 301.616 696.226C 301.784 696.226 301.919 696.266 302.022 696.34C 302.124 696.417 302.194 696.533 302.233 696.689L302.233 696.689L303.23 700.049C 303.296 700.266 303.341 700.5 303.378 700.75C 303.411 700.999 303.421 701.2599 303.421 701.527C 303.421 701.758 303.366 701.944 303.251 702.084C 303.134 702.225 302.974 702.317 302.773 702.354C 302.668 702.379 302.537 702.399 302.385 702.412C 301.928 702.462 301.696 702.655 301.696 702.987C 301.696 703.207 301.77 703.391 301.928 703.545C 302.079 703.699 302.268 703.775 302.481 703.775C 302.701 703.775 302.949 703.762 303.23 703.736C 303.513 703.711 303.677 703.699 303.731 703.699C 304.91 703.699 306.092 703.929 307.274 704.389C 308.459 704.851 309.063 705.081 309.091 705.081C 309.27 705.081 309.403 705.0359 309.495 704.948C 309.584 704.858 309.629 704.718 309.629 704.5229C 309.629 704.205 309.266 702.914 308.544 700.654C 307.817 698.392 307.212 696.407 306.73 694.69L306.73 694.69L306.381 693.516C 304.283 686.091 303.23 681.916 303.23 680.995C 303.23 680.814 303.253 680.692 303.3 680.628C 303.341 680.566 303.421 680.534 303.542 680.534C 303.934 680.534 304.498 681.223 305.23 682.605C 305.319 682.774 305.436 683.004 305.575 683.299C 305.907 684.016 306.252 684.374 306.613 684.374C 306.716 684.374 306.792 684.336 306.845 684.2599C 306.894 684.182 306.917 684.068 306.917 683.912C 306.917 683.631 306.72 683.074 306.324 682.241C 305.928 681.409 305.444 680.628 304.884 679.899C 304.168 678.979 303.394 678.282 302.57 677.813C 301.743 677.348 300.875 677.112 299.966 677.112C 299.197 677.112 298.637 677.292 298.286 677.651C 297.929 678.009 297.757 678.574 297.757 679.342C 297.757 679.688 297.829 680.197 297.968 680.878C 298.11 681.556 298.376 682.657 298.774 684.182M293.972 682.415C 293.972 682.044 294.029 681.78 294.148 681.628C 294.261 681.471 294.442 681.395 294.682 681.395C 295.106 681.395 295.623 681.764 296.239 682.493C 296.856 683.222 297.533 684.2599 298.278 685.604C 299.234 687.381 300.014 689.086 300.606 690.713C 301.203 692.338 301.503 693.48 301.503 694.133C 301.503 694.529 301.437 694.808 301.304 694.968C 301.164 695.129 300.937 695.209 300.619 695.209C 300.106 695.209 299.566 694.916 298.998 694.333C 298.428 693.752 297.829 692.883 297.199 691.733C 296.251 690.002 295.474 688.219 294.875 686.382C 294.274 684.545 293.972 683.222 293.972 682.415" stroke="none" fill="#FFFFFF" fill-rule="nonzero" /><path id="44" transform="matrix(1 0 0 -1 0 792)" d="M308.895 683.76L311.336 692.098C 311.373 692.198 311.402 692.299 311.42 692.395C 311.439 692.491 311.451 692.591 311.451 692.693C 311.451 692.847 311.412 692.968 311.336 693.058C 311.254 693.146 311.15 693.192 311.006 693.192C 310.854 693.192 310.649 693.048 310.393 692.759C 310.14 692.471 309.648 691.763 308.934 690.638C 308.895 690.572 308.836 690.483 308.762 690.367C 308.364 689.714 308.011 689.39 307.703 689.39C 307.586 689.39 307.49 689.418 307.408 689.476C 307.324 689.532 307.283 689.606 307.283 689.694C 307.283 689.938 307.434 690.325 307.742 690.86C 308.05 691.389 308.536 692.118 309.201 693.04C 309.933 694.037 310.762 694.811 311.699 695.364C 312.631 695.913 313.572 696.189 314.522 696.189C 315.265 696.189 315.845 695.981 316.262 695.564C 316.678 695.149 316.885 694.554 316.885 693.789C 316.885 693.352 316.816 692.837 316.682 692.242C 316.549 691.645 316.295 690.784 315.925 689.658L315.925 689.658L313.656 682.53C 313.492 682.017 313.363 681.556 313.275 681.14C 313.183 680.721 313.139 680.374 313.139 680.09C 313.139 679.862 313.236 679.661 313.429 679.489C 313.62 679.312 313.851 679.228 314.12 679.228C 314.567 679.228 315.121 679.469 315.782 679.948C 316.438 680.429 317.072 681.065 317.673 681.857C 318.596 683.075 319.314 684.313 319.833 685.575C 320.355 686.837 320.615 687.961 320.615 688.947C 320.615 689.434 320.373 690.167 319.903 691.147C 319.429 692.126 319.191 692.927 319.191 693.557C 319.191 694.35 319.374 694.987 319.737 695.468C 320.102 695.949 320.595 696.189 321.206 696.189C 321.846 696.189 322.34 695.929 322.687 695.412C 323.036 694.891 323.204 694.151 323.204 693.192C 323.204 692.066 323.009 690.804 322.619 689.408C 322.227 688.011 321.651 686.521 320.882 684.93C 319.661 682.384 318.264 680.414 316.682 679.026C 315.103 677.636 313.484 676.941 311.833 676.941C 310.721 676.941 309.853 677.261 309.227 677.902C 308.608 678.543 308.298 679.445 308.298 680.611C 308.298 680.967 308.339 681.364 308.415 681.793C 308.491 682.221 308.651 682.876 308.895 683.76" stroke="none" fill="#FFFFFF" fill-rule="nonzero" /><path id="45" transform="matrix(1 0 0 -1 0 792)" d="M333.36 683.876C 331.975 681.66 330.642 679.991 329.346 678.872C 328.053 677.75 326.837 677.193 325.696 677.193C 324.738 677.193 324.014 677.553 323.536 678.274C 323.056 679 322.816 680.089 322.816 681.552C 322.816 683.203 323.128 684.85 323.745 686.488C 324.369 688.127 325.269 689.658 326.447 691.076C 327.647 692.527 328.989 693.678 330.462 694.534C 331.935 695.395 333.297 695.824 334.554 695.824C 335.1 695.824 335.687 695.676 336.302 695.381C 336.44 695.317 336.524 695.283 336.552 695.283C 336.638 695.283 336.729 695.381 336.817 695.576C 336.856 695.664 336.893 695.728 336.917 695.764C 336.989 695.856 337.225 695.922 337.605 695.968C 337.988 696.012 338.678 696.035 339.66 696.035L339.66 696.035L340.161 696.035C 340.801 696.035 341.197 696 341.353 695.928C 341.509 695.858 341.585 695.708 341.585 695.478C 341.585 695.195 341.312 694.183 340.776 692.442C 340.428 691.328 340.149 690.411 339.931 689.694C 339.162 687.095 338.614 685.156 338.298 683.876C 337.978 682.594 337.82 681.756 337.82 681.36C 337.82 681.217 337.847 681.119 337.917 681.061C 337.978 681.003 338.089 680.967 338.241 680.955C 338.444 680.955 338.706 681.143 339.026 681.524C 339.346 681.901 339.687 682.421 340.046 683.087C 340.171 683.307 340.321 683.6 340.489 683.972C 340.746 684.509 340.969 684.778 341.16 684.778C 341.289 684.765 341.386 684.723 341.449 684.653C 341.515 684.581 341.546 684.477 341.546 684.337C 341.546 684.132 341.461 683.802 341.293 683.347C 341.129 682.892 340.912 682.421 340.639 681.935C 339.835 680.514 338.829 679.368 337.625 678.499C 336.421 677.625 335.276 677.193 334.187 677.193C 333.522 677.193 333.046 677.339 332.769 677.631C 332.484 677.928 332.345 678.419 332.345 679.112C 332.345 679.509 332.572 680.651 333.036 682.53C 333.178 683.107 333.284 683.555 333.36 683.876M328.289 682.109C 328.289 681.712 328.346 681.42 328.465 681.235C 328.576 681.047 328.757 680.955 329.001 680.955C 329.448 680.955 330.023 681.348 330.71 682.137C 331.403 682.924 332.205 684.106 333.133 685.679C 333.988 687.113 334.671 688.544 335.184 689.966C 335.697 691.385 335.953 692.5 335.953 693.306C 335.953 693.729 335.892 694.025 335.763 694.201C 335.631 694.374 335.412 694.46 335.09 694.46C 334.63 694.46 334.117 694.149 333.557 693.528C 332.989 692.907 332.285 691.877 331.44 690.445C 330.492 688.792 329.731 687.181 329.155 685.613C 328.576 684.044 328.289 682.876 328.289 682.109" stroke="none" fill="#FFFFFF" fill-rule="nonzero" /><path id="46" transform="matrix(1 0 0 -1 0 792)" d="M342.444 677.461C 342.161 677.461 341.978 677.491 341.886 677.555C 341.798 677.621 341.744 677.747 341.732 677.938C 341.732 678.016 341.757 678.144 341.81 678.322C 341.857 678.503 341.941 678.765 342.058 679.112L342.058 679.112L345.673 689.774C 345.874 690.387 346.024 690.88 346.12 691.252C 346.219 691.623 346.266 691.905 346.266 692.098C 346.266 692.338 346.225 692.53 346.149 692.675C 346.073 692.815 345.977 692.883 345.86 692.883C 345.718 692.883 345.484 692.743 345.164 692.462C 344.836 692.182 344.491 691.809 344.134 691.348C 343.903 691.04 343.63 690.631 343.308 690.118C 342.949 689.541 342.686 689.253 342.522 689.253C 342.405 689.253 342.307 689.301 342.222 689.397C 342.138 689.493 342.097 689.617 342.097 689.774C 342.097 690.002 342.282 690.423 342.653 691.032C 343.027 691.639 343.519 692.322 344.134 693.075C 344.963 694.075 345.813 694.83 346.678 695.343C 347.542 695.856 348.395 696.113 349.245 696.113C 349.948 696.113 350.471 695.916 350.816 695.525C 351.165 695.135 351.337 694.542 351.337 693.748C 351.337 693.3 351.253 692.717 351.077 692.002C 350.904 691.284 350.652 690.439 350.317 689.465C 351.715 691.603 353.099 693.246 354.468 694.394C 355.838 695.538 357.1 696.113 358.253 696.113C 359.122 696.113 359.781 695.872 360.228 695.391C 360.679 694.91 360.905 694.217 360.905 693.306C 360.905 692.436 360.454 690.791 359.557 688.369C 359.457 688.089 359.379 687.879 359.325 687.736C 359.085 687.083 358.757 686.212 358.347 685.126C 357.399 682.654 356.927 681.235 356.927 680.879C 356.927 680.727 356.962 680.596 357.042 680.494C 357.118 680.392 357.206 680.342 357.311 680.342C 357.5 680.342 357.727 680.438 357.984 680.638C 358.24 680.837 358.542 681.155 358.884 681.59C 359.258 682.065 359.658 682.64 360.087 683.319C 360.515 683.998 360.815 684.336 360.979 684.336C 361.092 684.336 361.192 684.305 361.276 684.24C 361.361 684.176 361.404 684.092 361.404 683.992C 361.404 683.643 361.237 683.169 360.913 682.562C 360.583 681.952 360.109 681.249 359.477 680.456C 358.649 679.38 357.785 678.575 356.89 678.036C 355.99 677.497 355.069 677.229 354.125 677.229C 353.263 677.229 352.617 677.421 352.182 677.805C 351.745 678.19 351.526 678.771 351.526 679.552C 351.526 680.001 351.635 680.632 351.856 681.446C 352.069 682.257 352.476 683.497 353.064 685.162C 353.397 686.095 353.836 687.294 354.392 688.754C 355.161 690.763 355.543 691.958 355.543 692.328C 355.543 692.53 355.514 692.675 355.446 692.759C 355.383 692.843 355.274 692.883 355.122 692.883C 354.634 692.883 353.848 692.192 352.759 690.81C 351.669 689.427 350.683 687.754 349.798 685.797C 349.044 684.132 348.116 681.54 347.015 678.016C 346.898 677.786 346.762 677.635 346.602 677.565C 346.44 677.495 346.055 677.461 345.439 677.461z" stroke="none" fill="#FFFFFF" fill-rule="nonzero" /><path id="47" transform="matrix(1 0 0 -1 0 792)" d="M365.932 693.556C 365.944 693.596 365.955 693.632 365.957 693.6721C 365.965 693.71 365.969 693.76 365.969 693.824C 365.969 693.9 365.957 693.953 365.932 693.979C 365.905 694.005 365.856 694.017 365.778 694.017L365.778 694.017L363.682 694.017C 363.593 694.017 363.521 694.037 363.462 694.075C 363.407 694.113 363.378 694.157 363.378 694.209C 363.378 694.5421 363.466 694.8701 363.649 695.191C 363.823 695.511 364.022 695.668 364.242 695.668L364.242 695.668L366.277 695.668C 366.482 695.681 366.623 695.786 366.701 695.976C 366.712 696.002 366.72 696.022 366.72 696.0341L366.72 696.0341L368.258 700.3961C 368.371 700.702 368.482 700.897 368.591 700.979C 368.699 701.063 368.903 701.106 369.198 701.106L369.198 701.106L372.845 701.106C 373.087 701.106 373.282 701.063 373.424 700.979C 373.561 700.897 373.635 700.7791 373.635 700.625C 373.635 700.574 373.623 700.501 373.606 700.4041C 373.588 700.308 373.559 700.196 373.518 700.0681L373.518 700.0681L372.193 695.996C 372.193 695.984 372.189 695.96 372.173 695.928C 372.162 695.8961 372.154 695.872 372.154 695.8621C 372.154 695.808 372.168 695.768 372.193 695.738C 372.218 695.704 372.257 695.681 372.31 695.668L372.31 695.668L374.747 695.668C 374.839 695.668 374.919 695.639 374.987 695.583C 375.061 695.525 375.096 695.451 375.096 695.363C 375.096 694.9901 375.018 694.674 374.872 694.4091C 374.725 694.149 374.536 694.017 374.308 694.017L374.308 694.017L371.83 694.017C 371.713 694.017 371.615 693.993 371.541 693.941C 371.465 693.889 371.405 693.812 371.366 693.71L371.366 693.71L367.468 681.744C 367.405 681.552 367.358 681.381 367.325 681.235C 367.29 681.087 367.278 680.955 367.278 680.838C 367.278 680.66 367.317 680.51 367.401 680.39C 367.485 680.267 367.583 680.205 367.698 680.205C 367.955 680.205 368.287 680.414 368.695 680.83C 369.11 681.247 369.563 681.838 370.062 682.605C 370.215 682.838 370.396 683.15 370.597 683.5471C 370.909 684.162 371.202 684.471 371.481 684.471C 371.61 684.471 371.713 684.42 371.791 684.316C 371.867 684.2141 371.906 684.08 371.906 683.912C 371.906 683.721 371.836 683.463 371.695 683.134C 371.553 682.8101 371.346 682.441 371.079 682.033C 370.08 680.4561 368.987 679.228 367.805 678.342C 366.619 677.4611 365.495 677.0161 364.43 677.0161C 363.55 677.0161 362.873 677.246 362.397 677.709C 361.923 678.17 361.685 678.8231 361.685 679.668C 361.685 680.0891 361.751 680.596 361.88 681.187C 362.003 681.774 362.217 682.485 362.512 683.319z" stroke="none" fill="#FFFFFF" fill-rule="nonzero" /><path id="48" transform="matrix(1 0 0 -1 0 792)" d="M383.56 683.876C 382.178 681.66 380.838 679.991 379.543 678.872C 378.251 677.75 377.035 677.193 375.898 677.193C 374.934 677.193 374.216 677.553 373.734 678.274C 373.256 679 373.014 680.089 373.014 681.552C 373.014 683.203 373.323 684.85 373.943 686.488C 374.567 688.127 375.465 689.658 376.643 691.076C 377.847 692.527 379.189 693.678 380.659 694.534C 382.132 695.395 383.493 695.824 384.752 695.824C 385.298 695.824 385.883 695.676 386.5 695.381C 386.642 695.317 386.722 695.283 386.748 695.283C 386.836 695.283 386.929 695.381 387.019 695.576C 387.054 695.664 387.089 695.728 387.115 695.764C 387.187 695.856 387.421 695.922 387.805 695.968C 388.19 696.012 388.874 696.035 389.862 696.035L389.862 696.035L390.359 696.035C 390.999 696.035 391.399 696 391.553 695.928C 391.705 695.858 391.78 695.708 391.78 695.478C 391.78 695.195 391.514 694.183 390.974 692.442C 390.63 691.328 390.346 690.411 390.129 689.694C 389.362 687.095 388.818 685.156 388.496 683.876C 388.18 682.594 388.018 681.756 388.018 681.36C 388.018 681.217 388.049 681.119 388.112 681.061C 388.18 681.003 388.285 680.967 388.439 680.955C 388.642 680.955 388.904 681.143 389.226 681.524C 389.544 681.901 389.885 682.421 390.244 683.087C 390.375 683.307 390.519 683.6 390.687 683.972C 390.943 684.509 391.167 684.778 391.356 684.778C 391.487 684.765 391.583 684.723 391.647 684.653C 391.713 684.581 391.744 684.477 391.744 684.337C 391.744 684.132 391.659 683.802 391.495 683.347C 391.327 682.892 391.108 682.421 390.837 681.935C 390.035 680.514 389.029 679.368 387.823 678.499C 386.619 677.625 385.474 677.193 384.385 677.193C 383.72 677.193 383.244 677.339 382.967 677.631C 382.682 677.928 382.541 678.419 382.541 679.112C 382.541 679.509 382.77 680.651 383.232 682.53C 383.376 683.107 383.48 683.555 383.56 683.876M378.487 682.109C 378.487 681.712 378.544 681.42 378.663 681.235C 378.774 681.047 378.957 680.955 379.203 680.955C 379.646 680.955 380.22 681.348 380.91 682.137C 381.599 682.924 382.407 684.106 383.328 685.679C 384.186 687.113 384.873 688.544 385.386 689.966C 385.895 691.385 386.151 692.5 386.151 693.306C 386.151 693.729 386.09 694.025 385.96 694.201C 385.831 694.374 385.61 694.46 385.288 694.46C 384.828 694.46 384.317 694.149 383.753 693.528C 383.187 692.907 382.483 691.877 381.638 690.445C 380.69 688.792 379.929 687.181 379.353 685.613C 378.774 684.044 378.487 682.876 378.487 682.109" stroke="none" fill="#FFFFFF" fill-rule="nonzero" /><path id="49" transform="matrix(1 0 0 -1 0 792)" d="M395.789 684.547C 395.024 685.034 394.435 685.687 394.033 686.509C 393.633 687.326 393.43 688.268 393.43 689.331C 393.43 691.265 394.137 692.898 395.547 694.23C 396.968 695.56 398.71 696.227 400.788 696.227C 401.705 696.227 402.694 696.029 403.744 695.632C 404.797 695.235 405.533 695.035 405.974 695.035C 406.522 695.035 407.134 695.071 407.798 695.143C 408.463 695.211 408.855 695.248 408.968 695.248C 409.187 695.235 409.343 695.195 409.439 695.133C 409.536 695.067 409.589 694.959 409.603 694.807C 409.603 694.743 409.599 694.695 409.591 694.662C 409.589 694.63 409.577 694.602 409.564 694.574L409.564 694.574L409.294 693.442C 409.267 693.34 409.175 693.26 409.015 693.202C 408.855 693.144 408.58 693.102 408.182 693.076L408.182 693.076L406.725 693C 406.965 692.707 407.142 692.339 407.259 691.906C 407.374 691.469 407.431 690.97 407.431 690.407C 407.431 688.332 406.701 686.613 405.24 685.251C 403.783 683.886 401.945 683.203 399.728 683.203C 399.155 683.203 398.575 683.275 397.992 683.423C 397.408 683.572 397.098 683.644 397.061 683.644C 396.905 683.644 396.761 683.546 396.628 683.347C 396.493 683.149 396.425 682.941 396.425 682.724C 396.425 682.109 397.502 681.444 399.652 680.727C 399.806 680.675 399.923 680.635 399.996 680.611C 402.395 679.789 404.007 678.966 404.848 678.133C 405.687 677.301 406.108 676.211 406.108 674.867C 406.108 672.984 405.267 671.413 403.591 670.153C 401.913 668.891 399.787 668.258 397.213 668.258C 394.704 668.258 392.656 668.777 391.079 669.815C 389.493 670.85 388.701 672.164 388.701 673.753C 388.701 674.829 389.146 675.759 390.03 676.538C 390.915 677.321 392.096 677.826 393.582 678.056C 393.337 678.363 393.151 678.695 393.026 679.054C 392.898 679.413 392.833 679.797 392.833 680.206C 392.833 681.001 393.067 681.741 393.532 682.426C 394.002 683.111 394.757 683.82 395.789 684.547M394.369 677.077C 393.947 676.832 393.614 676.49 393.372 676.047C 393.128 675.606 393.005 675.117 393.005 674.579C 393.005 673.184 393.487 672.044 394.453 671.159C 395.426 670.277 396.683 669.835 398.23 669.835C 399.283 669.835 400.128 670.069 400.764 670.538C 401.408 671.002 401.726 671.62 401.726 672.389C 401.726 673.184 400.932 673.899 399.346 674.54C 399.283 674.566 399.235 674.579 399.207 674.579C 397.89 675.129 396.868 675.594 396.136 675.971C 395.407 676.35 394.819 676.716 394.369 677.077M401.533 694.883C 401.252 694.883 400.983 694.767 400.727 694.534C 400.47 694.306 400.204 693.921 399.923 693.384C 399.395 692.425 398.971 691.321 398.642 690.079C 398.318 688.839 398.154 687.687 398.154 686.621C 398.154 685.944 398.238 685.459 398.407 685.171C 398.571 684.884 398.837 684.742 399.207 684.742C 399.992 684.742 400.758 685.599 401.508 687.326C 402.253 689.045 402.626 690.912 402.626 692.924C 402.626 693.603 402.542 694.097 402.368 694.41C 402.2 694.727 401.921 694.883 401.533 694.883" stroke="none" fill="#FFFFFF" fill-rule="nonzero" /><path id="50" transform="matrix(1 0 0 -1 0 792)" d="M408.346 683.394C 408.346 685.15 408.748 686.873 409.55 688.563C 410.348 690.254 411.466 691.733 412.9 692.999C 414.143 694.075 415.354 694.874 416.531 695.401C 417.709 695.926 418.884 696.188 420.064 696.188C 421.602 696.188 422.796 695.816 423.64 695.072C 424.481 694.3329 424.905 693.287 424.905 691.943C 424.905 690.022 424.218 688.575 422.84 687.602C 421.463 686.628 419.046 685.923 415.59 685.488C 415.565 685.488 415.532 685.482 415.493 685.468C 414.556 685.342 414.092 684.599 414.092 683.2419C 414.092 682.088 414.297 681.191 414.71 680.552C 415.114 679.913 415.686 679.592 416.414 679.592C 417.157 679.592 417.895 679.822 418.626 680.283C 419.356 680.746 420.045 681.415 420.698 682.301C 420.903 682.581 421.147 682.954 421.43 683.415C 421.828 684.054 422.132 684.374 422.351 684.374C 422.503 684.374 422.628 684.3199 422.714 684.212C 422.805 684.102 422.856 683.964 422.872 683.799C 422.872 683.4789 422.649 682.938 422.206 682.177C 421.767 681.4109 421.223 680.692 420.583 680.013C 419.608 678.989 418.581 678.23 417.495 677.729C 416.402 677.228 415.218 676.98 413.94 676.98C 412.186 676.98 410.814 677.545 409.829 678.679C 408.842 679.812 408.346 681.383 408.346 683.394M414.728 686.66C 415.815 686.812 416.671 687.101 417.298 687.526C 417.926 687.946 418.497 688.631 419.011 689.581C 419.405 690.362 419.717 691.114 419.931 691.837C 420.148 692.56 420.259 693.183 420.259 693.71C 420.259 694.081 420.179 694.363 420.029 694.553C 419.873 694.748 419.637 694.842 419.317 694.842C 418.458 694.842 417.627 694.137 416.827 692.72C 416.029 691.308 415.325 689.284 414.728 686.66" stroke="none" fill="#FFFFFF" fill-rule="nonzero" /><path id="51" transform="matrix(1 0 0 -1 0 792)" d="M279.09 658.23L280.643 666.093L283.287 666.093L282.676 663.06L286.114 663.06L286.713 666.093L289.365 666.093L287.807 658.23L285.154 658.23L285.785 661.442L282.362 661.442L281.73 658.23z" stroke="none" fill="#FFFFFF" fill-rule="nonzero" /><path id="52" transform="matrix(1 0 0 -1 0 792)" d="M294.494 658.02C 293.79 658.02 293.15 658.098 292.576 658.253C 292.001 658.405 291.49 658.637 291.041 658.946C 290.572 659.274 290.206 659.681 289.941 660.164C 289.677 660.649 289.544 661.162 289.544 661.706C 289.544 662.293 289.657 662.842 289.883 663.353C 290.109 663.862 290.446 664.327 290.895 664.742C 291.418 665.236 292.057 665.613 292.812 665.878C 293.565 666.142 294.383 666.272 295.267 666.272C 296.742 666.272 297.936 665.932 298.849 665.253C 299.76 664.571 300.215 663.686 300.215 662.598C 300.215 662.015 300.098 661.466 299.869 660.951C 299.637 660.436 299.3 659.976 298.857 659.563C 298.316 659.058 297.676 658.673 296.937 658.413C 296.201 658.153 295.384 658.02 294.494 658.02M295.097 664.349C 294.297 664.349 293.626 664.119 293.082 663.656C 292.541 663.193 292.272 662.62 292.272 661.937C 292.272 661.332 292.488 660.849 292.918 660.487C 293.351 660.124 293.928 659.943 294.648 659.943C 295.438 659.943 296.106 660.184 296.654 660.661C 297.206 661.139 297.483 661.722 297.483 662.41C 297.483 662.977 297.257 663.441 296.81 663.804C 296.363 664.167 295.79 664.349 295.097 664.349" stroke="none" fill="#FFFFFF" fill-rule="nonzero" /><path id="53" transform="matrix(1 0 0 -1 0 792)" d="M299.8 658.23L302.81 666.093L302.81 666.093L305.731 666.093L305.731 666.093L306.387 663.048C 306.428 662.864 306.465 662.668 306.5 662.459C 306.533 662.255 306.566 662.041 306.597 661.818C 306.646 661.976 306.713 662.147 306.795 662.327C 306.878 662.507 306.995 662.734 307.146 663.006L307.146 663.006L308.906 666.093L308.906 666.093L311.807 666.093L311.807 666.093L312.041 658.23L312.041 658.23L309.618 658.23L309.618 658.23L309.592 661.978C 309.592 662.191 309.596 662.399 309.606 662.606C 309.614 662.812 309.627 663.018 309.645 663.225C 309.547 662.96 309.378 662.63 309.14 662.231C 309.097 662.155 309.062 662.095 309.04 662.055L309.04 662.055L306.8 658.23L306.8 658.23L305.206 658.23L305.206 658.23L304.287 662.05C 304.239 662.243 304.194 662.437 304.155 662.631C 304.118 662.828 304.081 663.024 304.053 663.221C 304.001 662.988 303.95 662.768 303.895 662.559C 303.837 662.351 303.782 662.159 303.724 661.978L303.724 661.978L302.36 658.23z" stroke="none" fill="#FFFFFF" fill-rule="nonzero" /><path id="54" transform="matrix(1 0 0 -1 0 792)" d="M315.463 659.982L318.505 659.982L318.163 658.231L312.495 658.231L314.048 666.094L319.714 666.094L319.359 664.279L316.316 664.279L316.068 662.997L318.887 662.997L318.559 661.286L315.726 661.286z" stroke="none" fill="#FFFFFF" fill-rule="nonzero" /><path id="55" transform="matrix(1 0 0 -1 0 792)" d="M324.19 658.23L325.384 664.268L323.183 664.268L323.558 666.093L330.502 666.093L330.127 664.268L328.024 664.268L326.828 658.23z" stroke="none" fill="#FFFFFF" fill-rule="nonzero" /><path id="56" transform="matrix(1 0 0 -1 0 792)" d="M332.616 659.982L335.656 659.982L335.314 658.231L329.645 658.231L331.198 666.094L336.867 666.094L336.51 664.279L333.469 664.279L333.219 662.997L336.04 662.997L335.71 661.286L332.877 661.286z" stroke="none" fill="#FFFFFF" fill-rule="nonzero" /><path id="57" transform="matrix(1 0 0 -1 0 792)" d="M336.452 658.23L338.005 666.093L340.649 666.093L339.46 660.111L342.709 660.111L342.342 658.23z" stroke="none" fill="#FFFFFF" fill-rule="nonzero" /><path id="58" transform="matrix(1 0 0 -1 0 792)" d="M345.778 659.982L348.818 659.982L348.476 658.231L342.807 658.231L344.36 666.094L350.029 666.094L349.672 664.279L346.631 664.279L346.381 662.997L349.202 662.997L348.872 661.286L346.041 661.286z" stroke="none" fill="#FFFFFF" fill-rule="nonzero" /><path id="59" transform="matrix(1 0 0 -1 0 792)" d="M349.038 658.23L352.048 666.093L352.048 666.093L354.969 666.093L354.969 666.093L355.625 663.048C 355.666 662.864 355.703 662.668 355.738 662.459C 355.771 662.255 355.804 662.041 355.835 661.818C 355.884 661.976 355.951 662.147 356.034 662.327C 356.116 662.507 356.233 662.734 356.384 663.006L356.384 663.006L358.144 666.093L358.144 666.093L361.045 666.093L361.045 666.093L361.279 658.23L361.279 658.23L358.856 658.23L358.856 658.23L358.83 661.978C 358.83 662.191 358.834 662.399 358.844 662.606C 358.852 662.812 358.865 663.018 358.883 663.225C 358.785 662.96 358.616 662.63 358.378 662.231C 358.335 662.155 358.3 662.095 358.278 662.055L358.278 662.055L356.038 658.23L356.038 658.23L354.444 658.23L354.444 658.23L353.525 662.05C 353.477 662.243 353.432 662.437 353.393 662.631C 353.356 662.828 353.319 663.024 353.291 663.221C 353.239 662.988 353.188 662.768 353.133 662.559C 353.075 662.351 353.02 662.159 352.962 661.978L352.962 661.978L351.596 658.23z" stroke="none" fill="#FFFFFF" fill-rule="nonzero" /><path id="60" transform="matrix(1 0 0 -1 0 792)" d="M364.703 659.982L367.745 659.982L367.403 658.231L361.734 658.231L363.287 666.094L368.954 666.094L368.599 664.279L365.556 664.279L365.308 662.997L368.127 662.997L367.799 661.286L364.966 661.286z" stroke="none" fill="#FFFFFF" fill-rule="nonzero" /><path id="61" transform="matrix(1 0 0 -1 0 792)" d="M368.529 658.231L370.066 666.094L370.066 666.094L371.76 666.094C 373.022 666.094 373.922 666.066 374.462 666.012C 375.002 665.958 375.441 665.862 375.775 665.726C 376.503 665.431 377.061 665 377.443 664.431C 377.826 663.866 378.017 663.191 378.017 662.41C 378.017 661.655 377.845 660.993 377.502 660.429C 377.16 659.862 376.641 659.383 375.943 658.988C 375.449 658.716 374.866 658.521 374.189 658.405C 373.514 658.289 372.384 658.231 370.8 658.231L370.8 658.231L370.429 658.231zM371.512 659.982C 371.695 659.972 371.83 659.964 371.918 659.964C 372.004 659.962 372.086 659.96 372.162 659.96C 373.215 659.96 374.013 660.172 374.56 660.595C 375.104 661.017 375.379 661.637 375.379 662.452C 375.379 663.119 375.18 663.604 374.78 663.906C 374.382 664.209 373.738 664.359 372.848 664.359L372.848 664.359L372.351 664.359z" stroke="none" fill="#FFFFFF" fill-rule="nonzero" /><path id="62" transform="matrix(1 0 0 -1 0 792)" d="M378.275 658.23L379.832 666.093L382.513 666.093L380.954 658.23z" stroke="none" fill="#FFFFFF" fill-rule="nonzero" /><path id="63" transform="matrix(1 0 0 -1 0 792)" d="M391.271 665.725L390.83 663.553C 390.455 663.816 390.044 664.014 389.601 664.146C 389.158 664.282 388.694 664.349 388.216 664.349C 387.404 664.349 386.729 664.1219 386.204 663.666C 385.675 663.213 385.41 662.632 385.41 661.927C 385.41 661.29 385.632 660.797 386.075 660.446C 386.518 660.097 387.146 659.923 387.956 659.923C 388.305 659.923 388.664 659.955 389.035 660.0229C 389.402 660.092 389.792 660.196 390.198 660.332L390.198 660.332L389.79 658.2939C 389.453 658.2079 389.082 658.144 388.678 658.1C 388.272 658.054 387.835 658.032 387.365 658.032C 385.962 658.032 384.842 658.379 383.997 659.074C 383.153 659.769 382.731 660.691 382.731 661.84C 382.731 662.395 382.839 662.924 383.057 663.429C 383.274 663.93 383.592 664.389 384.013 664.799C 384.505 665.28 385.121 665.647 385.857 665.901C 386.594 666.156 387.416 666.282 388.331 666.282C 388.852 666.282 389.355 666.236 389.841 666.142C 390.329 666.05 390.807 665.909 391.271 665.725" stroke="none" fill="#FFFFFF" fill-rule="nonzero" /><path id="64" transform="matrix(1 0 0 -1 0 792)" d="M390.746 658.23L392.303 666.093L394.984 666.093L393.425 658.23z" stroke="none" fill="#FFFFFF" fill-rule="nonzero" /><path id="65" transform="matrix(1 0 0 -1 0 792)" d="M394.886 658.23L396.439 666.093L396.439 666.093L399.44 666.093L399.44 666.093L401.514 662.211C 401.533 662.179 401.561 662.123 401.6 662.044C 401.83 661.618 401.988 661.245 402.078 660.927L402.078 660.927L402.078 661.125C 402.078 661.269 402.089 661.427 402.109 661.602C 402.128 661.774 402.159 661.986 402.199 662.231L402.199 662.231L402.959 666.093L402.959 666.093L405.584 666.093L405.584 666.093L404.034 658.23L404.034 658.23L401.145 658.23L401.145 658.23L398.944 662.231C 398.78 662.523 398.661 662.762 398.577 662.952C 398.495 663.14 398.425 663.333 398.365 663.521L398.365 663.521L398.365 663.301C 398.365 663.156 398.357 663.006 398.343 662.848C 398.326 662.688 398.298 662.475 398.259 662.211L398.259 662.211L397.512 658.23z" stroke="none" fill="#FFFFFF" fill-rule="nonzero" /><path id="66" transform="matrix(1 0 0 -1 0 792)" d="M408.401 659.982L411.441 659.982L411.099 658.231L405.433 658.231L406.985 666.094L412.652 666.094L412.295 664.279L409.254 664.279L409.006 662.997L411.825 662.997L411.497 661.286L408.664 661.286z" stroke="none" fill="#FFFFFF" fill-rule="nonzero" /><path id="67" transform="matrix(1 0 0 -1 0 792)" d="M421.028 658.02C 420.324 658.02 419.686 658.098 419.112 658.253C 418.535 658.405 418.025 658.637 417.577 658.946C 417.107 659.274 416.74 659.681 416.476 660.164C 416.213 660.649 416.08 661.162 416.08 661.706C 416.08 662.293 416.193 662.842 416.418 663.353C 416.644 663.862 416.982 664.327 417.43 664.742C 417.953 665.236 418.593 665.613 419.348 665.878C 420.101 666.142 420.919 666.272 421.801 666.272C 423.278 666.272 424.472 665.932 425.383 665.253C 426.296 664.571 426.749 663.686 426.749 662.598C 426.749 662.015 426.635 661.466 426.403 660.951C 426.173 660.436 425.836 659.976 425.393 659.563C 424.85 659.058 424.212 658.673 423.473 658.413C 422.735 658.153 421.92 658.02 421.028 658.02M421.633 664.349C 420.833 664.349 420.16 664.119 419.618 663.656C 419.077 663.193 418.806 662.62 418.806 661.937C 418.806 661.332 419.024 660.849 419.454 660.487C 419.887 660.124 420.464 659.943 421.182 659.943C 421.972 659.943 422.64 660.184 423.19 660.661C 423.74 661.139 424.017 661.722 424.017 662.41C 424.017 662.977 423.793 663.441 423.346 663.804C 422.897 664.167 422.326 664.349 421.633 664.349" stroke="none" fill="#FFFFFF" fill-rule="nonzero" /><path id="68" transform="matrix(1 0 0 -1 0 792)" d="M429.884 659.982L432.924 659.982L432.582 658.231L426.913 658.231L428.466 666.094L434.135 666.094L433.778 664.279L430.737 664.279L430.489 662.997L433.308 662.997L432.978 661.286L430.147 661.286z" stroke="none" fill="#FFFFFF" fill-rule="nonzero" /><path id="69" transform="matrix(1 0 0 -1 0 792)" d="M433.144 658.23L436.153 666.093L436.153 666.093L439.075 666.093L439.075 666.093L439.731 663.048C 439.772 662.864 439.809 662.668 439.844 662.459C 439.877 662.255 439.91 662.041 439.94 661.818C 439.99 661.976 440.057 662.147 440.139 662.327C 440.222 662.507 440.338 662.734 440.492 663.006L440.492 663.006L442.25 666.093L442.25 666.093L445.151 666.093L445.151 666.093L445.385 658.23L445.385 658.23L442.962 658.23L442.962 658.23L442.936 661.978C 442.936 662.191 442.94 662.399 442.95 662.606C 442.958 662.812 442.972 663.018 442.989 663.225C 442.89 662.96 442.722 662.63 442.484 662.231C 442.441 662.155 442.406 662.095 442.384 662.055L442.384 662.055L440.144 658.23L440.144 658.23L438.55 658.23L438.55 658.23L437.631 662.05C 437.583 662.243 437.538 662.437 437.501 662.631C 437.462 662.828 437.425 663.024 437.397 663.221C 437.345 662.988 437.294 662.768 437.239 662.559C 437.181 662.351 437.126 662.159 437.068 661.978L437.068 661.978L435.704 658.23z" stroke="none" fill="#FFFFFF" fill-rule="nonzero" /><path id="70" transform="matrix(1 0 0 -1 0 792)" d="M455.152 662.324C 455.777 662.231 456.255 662.031 456.584 661.727C 456.912 661.418 457.078 661.025 457.078 660.541C 457.078 660.14 456.967 659.769 456.746 659.429C 456.524 659.088 456.22 658.822 455.829 658.63C 455.541 658.485 455.184 658.383 454.752 658.321C 454.321 658.261 453.599 658.231 452.593 658.231L452.593 658.231L451.908 658.231L451.908 658.231L449.35 658.231L449.35 658.231L450.915 666.094L450.915 666.094L453.143 666.094C 453.999 666.094 454.608 666.078 454.977 666.046C 455.344 666.014 455.65 665.958 455.896 665.874C 456.305 665.746 456.627 665.533 456.867 665.237C 457.107 664.938 457.226 664.602 457.226 664.227C 457.226 663.706 457.041 663.277 456.672 662.941C 456.302 662.6 455.794 662.396 455.152 662.324M452.21 659.771L452.526 659.771C 453.322 659.771 453.851 659.85 454.114 660.004C 454.376 660.156 454.508 660.428 454.508 660.815C 454.508 661.102 454.395 661.306 454.169 661.426C 453.947 661.548 453.57 661.611 453.037 661.611L453.037 661.611L452.565 661.611zM452.854 663.049L453.076 663.049C 453.707 663.049 454.142 663.117 454.382 663.251C 454.62 663.385 454.741 663.612 454.741 663.931C 454.741 664.159 454.645 664.327 454.448 664.431C 454.255 664.539 453.941 664.592 453.513 664.592L453.513 664.592L453.143 664.592z" stroke="none" fill="#FFFFFF" fill-rule="nonzero" /><path id="71" transform="matrix(1 0 0 -1 0 792)" d="M457.269 658.23L458.835 666.094L458.835 666.094L461.534 666.094C 462.283 666.094 462.843 666.07 463.221 666.022C 463.596 665.974 463.922 665.893 464.199 665.777C 464.702 665.573 465.077 665.294 465.326 664.94C 465.574 664.585 465.699 664.162 465.699 663.666C 465.699 663.177 465.563 662.72 465.297 662.303C 465.032 661.883 464.671 661.562 464.214 661.336C 463.945 661.202 463.627 661.109 463.26 661.053C 462.892 660.997 462.318 660.969 461.534 660.969L461.534 660.969L461.132 660.969L461.132 660.969L460.433 660.969L460.433 660.969L459.883 658.23zM460.761 662.64L461.009 662.64C 461.863 662.64 462.437 662.712 462.737 662.856C 463.036 662.999 463.186 663.243 463.186 663.586C 463.186 663.876 463.059 664.088 462.802 664.223C 462.544 664.357 462.138 664.423 461.59 664.423L461.59 664.423L461.118 664.423z" stroke="none" fill="#FFFFFF" fill-rule="nonzero" /><path id="72" transform="matrix(1 0 0 -1 0 792)" d="M468.384 658.23L471.394 666.093L471.394 666.093L474.315 666.093L474.315 666.093L474.971 663.048C 475.012 662.864 475.049 662.668 475.084 662.459C 475.115 662.255 475.15 662.041 475.181 661.818C 475.23 661.976 475.295 662.147 475.377 662.327C 475.46 662.507 475.579 662.734 475.73 663.006L475.73 663.006L477.491 666.093L477.491 666.093L480.391 666.093L480.391 666.093L480.625 658.23L480.625 658.23L478.2 658.23L478.2 658.23L478.176 661.978C 478.176 662.191 478.18 662.399 478.188 662.606C 478.196 662.812 478.211 663.018 478.229 663.225C 478.131 662.96 477.962 662.63 477.724 662.231C 477.679 662.155 477.646 662.095 477.624 662.055L477.624 662.055L475.382 658.23L475.382 658.23L473.79 658.23L473.79 658.23L472.871 662.05C 472.821 662.243 472.778 662.437 472.739 662.631C 472.702 662.828 472.665 663.024 472.635 663.221C 472.585 662.988 472.534 662.768 472.477 662.559C 472.421 662.351 472.366 662.159 472.306 661.978L472.306 661.978L470.942 658.23z" stroke="none" fill="#FFFFFF" fill-rule="nonzero" /><path id="73" transform="matrix(1 0 0 -1 0 792)" d="M486.345 658.02C 485.641 658.02 485.003 658.098 484.429 658.253C 483.852 658.405 483.341 658.637 482.892 658.946C 482.425 659.274 482.057 659.681 481.793 660.164C 481.528 660.649 481.397 661.162 481.397 661.706C 481.397 662.293 481.51 662.842 481.735 663.353C 481.961 663.862 482.297 664.327 482.747 664.742C 483.27 665.236 483.91 665.613 484.665 665.878C 485.418 666.142 486.234 666.272 487.118 666.272C 488.595 666.272 489.789 665.932 490.7 665.253C 491.611 664.571 492.066 663.686 492.066 662.598C 492.066 662.015 491.951 661.466 491.72 660.951C 491.49 660.436 491.153 659.976 490.71 659.563C 490.167 659.058 489.529 658.673 488.788 658.413C 488.052 658.153 487.237 658.02 486.345 658.02M486.95 664.349C 486.148 664.349 485.477 664.119 484.935 663.656C 484.394 663.193 484.123 662.62 484.123 661.937C 484.123 661.332 484.341 660.849 484.771 660.487C 485.202 660.124 485.781 659.943 486.499 659.943C 487.289 659.943 487.957 660.184 488.507 660.661C 489.057 661.139 489.334 661.722 489.334 662.41C 489.334 662.977 489.11 663.441 488.663 663.804C 488.214 664.167 487.643 664.349 486.95 664.349" stroke="none" fill="#FFFFFF" fill-rule="nonzero" /><path id="74" transform="matrix(1 0 0 -1 0 792)" d="M492.218 658.231L493.755 666.094L493.755 666.094L495.449 666.094C 496.711 666.094 497.612 666.066 498.151 666.012C 498.691 665.958 499.13 665.862 499.464 665.726C 500.192 665.431 500.75 665 501.132 664.431C 501.515 663.866 501.706 663.191 501.706 662.41C 501.706 661.655 501.534 660.993 501.191 660.429C 500.849 659.862 500.33 659.383 499.632 658.988C 499.138 658.716 498.555 658.521 497.878 658.405C 497.203 658.289 496.073 658.231 494.489 658.231L494.489 658.231L494.118 658.231zM495.199 659.982C 495.384 659.972 495.519 659.964 495.607 659.964C 495.693 659.962 495.775 659.96 495.851 659.96C 496.904 659.96 497.702 660.172 498.25 660.595C 498.793 661.017 499.068 661.637 499.068 662.452C 499.068 663.119 498.869 663.604 498.469 663.906C 498.071 664.209 497.427 664.359 496.537 664.359L496.537 664.359L496.04 664.359z" stroke="none" fill="#FFFFFF" fill-rule="nonzero" /><path id="75" transform="matrix(1 0 0 -1 0 792)" d="M503.355 666.094L505.995 666.094L505.995 666.094L505.207 662.147C 505.146 661.847 505.105 661.61 505.082 661.44C 505.06 661.27 505.048 661.122 505.048 660.993C 505.048 660.655 505.166 660.392 505.404 660.204C 505.64 660.016 505.971 659.924 506.397 659.924C 507.411 659.924 508.127 661.001 508.553 663.157L508.553 663.157L508.566 663.233L508.566 663.233L509.132 666.094L509.132 666.094L511.77 666.094L511.77 666.094L510.89 661.631L510.89 661.631L510.89 661.626C 510.697 660.659 510.455 659.976 510.164 659.575C 509.799 659.062 509.28 658.672 508.611 658.403C 507.94 658.133 507.152 658 506.243 658C 505.07 658 504.131 658.225 503.423 658.674C 502.717 659.122 502.362 659.719 502.362 660.465C 502.362 660.689 502.389 660.985 502.444 661.358C 502.495 661.731 502.577 662.191 502.684 662.744z" stroke="none" fill="#FFFFFF" fill-rule="nonzero" /><path id="76" transform="matrix(1 0 0 -1 0 792)" d="M511.51 658.23L513.063 666.093L515.707 666.093L514.517 660.111L517.767 660.111L517.4 658.23z" stroke="none" fill="#FFFFFF" fill-rule="nonzero" /><path id="77" transform="matrix(1 0 0 -1 0 792)" d="M520.836 659.982L523.876 659.982L523.534 658.231L517.865 658.231L519.418 666.094L525.087 666.094L524.73 664.279L521.689 664.279L521.441 662.997L524.26 662.997L523.93 661.286L521.099 661.286z" stroke="none" fill="#FFFFFF" fill-rule="nonzero" /><path id="78" transform="matrix(1 0 0 -1 0 792)" d="M484.336 701.712C 486.182 701.712 485.951 703.4449 487.222 703.4449C 487.571 703.4449 487.801 703.366 487.801 702.9059C 487.801 702.558 487.452 701.865 485.797 696.511C 485.37 695.199 485.333 694.776 484.642 694.776C 484.217 694.776 483.948 694.97 483.948 695.472C 483.948 696.549 484.412 697.936 484.412 699.1689C 484.412 699.862 483.987 700.17 482.756 700.17C 480.752 700.17 480.713 700.132 480.561 699.6689L480.561 699.6689L475.012 681.796C 474.776 681.0229 474.553 680.37 474.553 679.9449C 474.553 679.368 474.895 679.06 475.474 678.9839C 476.858 678.791 477.166 678.713 477.166 678.212C 477.166 677.673 477.014 677.443 476.28 677.443C 475.283 677.443 474.048 677.593 471.35 677.593C 468.078 677.593 467.19 677.443 465.92 677.443C 465.344 677.443 465.075 677.673 465.075 678.174C 465.075 678.483 465.264 678.9449 466.035 678.9839C 468.349 679.0959 468.273 679.521 468.925 681.68C 474.243 698.553 474.553 699.401 474.553 699.824C 474.553 700.132 474.356 700.17 473.24 700.17C 469.35 700.17 469.27 695.239 467.805 695.239C 467.27 695.239 466.997 695.279 466.997 695.742C 466.997 696.124 467.461 697.166 469.656 703.366C 469.812 703.753 470.043 703.9449 470.544 703.9449C 470.965 703.9449 471.233 703.83 471.233 703.4449C 471.233 703.174 471.008 702.79 471.008 702.288C 471.008 701.903 471.313 701.712 471.966 701.712z" stroke="none" fill="#FFFFFF" fill-rule="nonzero" /><path id="79" transform="matrix(1 0 0 -1 0 792)" d="M441.967 681.151L446.962 698.785C 446.962 698.797 446.97 698.829 446.981 698.881C 447.122 699.393 447.19 699.763 447.19 699.994C 447.19 700.313 446.823 700.583 446.088 700.801C 445.356 701.02 444.985 701.288 444.985 701.608C 444.985 701.839 445.052 702.002 445.194 702.096C 445.335 702.195 445.573 702.241 445.906 702.241C 445.918 702.241 446.398 702.223 447.344 702.185C 448.296 702.144 449.229 702.126 450.152 702.126C 451.406 702.126 452.694 702.157 454.009 702.223C 454.305 702.235 454.485 702.241 454.549 702.241C 454.795 702.241 454.982 702.191 455.109 702.087C 455.234 701.984 455.299 701.825 455.299 701.608C 455.299 701.3 455.047 701.076 454.549 700.935C 454.048 700.794 453.749 700.691 453.648 700.628C 453.429 700.448 453.248 700.223 453.108 699.956C 452.967 699.686 452.795 699.207 452.592 698.516L452.592 698.516L450.69 691.849C 450.673 691.785 450.653 691.685 450.614 691.54C 450.614 691.44 450.661 691.356 450.755 691.292C 450.85 691.228 450.977 691.196 451.131 691.196L451.131 691.196L456.508 691.196C 456.715 691.196 456.896 691.248 457.047 691.35C 457.199 691.452 457.316 691.601 457.392 691.793L457.392 691.793L459.353 698.747C 459.415 698.963 459.464 699.171 459.499 699.37C 459.525 699.568 459.546 699.778 459.546 699.994C 459.546 700.264 459.251 700.537 458.662 700.811C 458.073 701.085 457.778 701.351 457.778 701.608C 457.778 701.839 457.858 702.002 458.026 702.096C 458.194 702.195 458.461 702.241 458.832 702.241C 458.881 702.241 459.025 702.235 459.257 702.223C 460.434 702.157 461.62 702.126 462.81 702.126C 464.022 702.126 465.3 702.157 466.632 702.223C 466.942 702.235 467.136 702.241 467.229 702.241C 467.536 702.241 467.756 702.195 467.889 702.096C 468.023 702.002 468.092 701.839 468.092 701.608C 468.082 701.25 467.77 701 467.169 700.858C 466.825 700.782 466.564 700.705 466.384 700.628C 466.012 700.5 465.727 700.306 465.538 700.052C 465.343 699.796 465.147 699.283 464.939 698.516L464.939 698.516L459.946 680.921C 459.934 680.895 459.919 680.855 459.907 680.806C 459.766 680.306 459.698 679.927 459.698 679.672C 459.698 679.364 460.065 679.094 460.804 678.863C 461.54 678.635 461.907 678.366 461.907 678.058C 461.907 677.841 461.848 677.681 461.725 677.577C 461.604 677.477 461.415 677.425 461.158 677.425C 461.044 677.425 460.434 677.445 459.335 677.481C 458.233 677.521 457.189 677.539 456.202 677.539C 455.061 677.539 453.876 677.507 452.649 677.445C 452.38 677.431 452.212 677.425 452.15 677.425C 451.894 677.425 451.724 677.463 451.64 677.539C 451.556 677.617 451.515 677.761 451.515 677.982C 451.527 678.366 451.888 678.651 452.592 678.845C 452.848 678.923 453.039 678.987 453.168 679.035C 453.42 679.204 453.632 679.416 453.792 679.672C 453.95 679.927 454.14 680.422 454.358 681.151L454.358 681.151L456.547 688.968C 456.571 689.02 456.588 689.056 456.596 689.072C 456.602 689.092 456.606 689.129 456.606 689.181C 456.606 689.321 456.543 689.429 456.411 689.507C 456.286 689.585 456.11 689.621 455.89 689.621L455.89 689.621L450.825 689.621C 450.489 689.621 450.265 689.585 450.152 689.507C 450.037 689.429 449.945 689.277 449.884 689.044L449.884 689.044L447.596 680.921C 447.518 680.662 447.459 680.43 447.416 680.217C 447.371 680.007 447.344 679.849 447.344 679.749C 447.344 679.416 447.715 679.136 448.448 678.911C 449.188 678.687 449.557 678.402 449.557 678.058C 449.557 677.841 449.496 677.681 449.383 677.577C 449.268 677.477 449.075 677.425 448.809 677.425C 448.614 677.425 448.006 677.445 446.981 677.481C 445.957 677.521 445.03 677.539 444.197 677.539C 443.188 677.539 442.141 677.521 441.077 677.481C 440.008 677.445 439.45 677.425 439.411 677.425C 439.183 677.425 439.019 677.467 438.923 677.549C 438.826 677.631 438.781 677.775 438.781 677.982C 438.781 678.326 439.118 678.627 439.799 678.883C 439.963 678.947 440.096 678.999 440.201 679.035C 440.75 679.166 441.126 679.34 441.325 679.564C 441.522 679.789 441.737 680.318 441.967 681.151" stroke="none" fill="#FFFFFF" fill-rule="nonzero" /></g></g></g></svg>